<svg width="24" height="25" viewBox="0 0 24 25" fill="none" xmlns="http://www.w3.org/2000/svg">
<path d="M8 13.1855V17.1855M16 11.1855V17.1855M12 7.18555V17.1855M7.8 21.1855H16.2C17.8802 21.1855 18.7202 21.1855 19.362 20.8586C19.9265 20.5709 20.3854 20.112 20.673 19.5475C21 18.9058 21 18.0657 21 16.3855V7.98555C21 6.30539 21 5.46531 20.673 4.82358C20.3854 4.25909 19.9265 3.80015 19.362 3.51253C18.7202 3.18555 17.8802 3.18555 16.2 3.18555H7.8C6.11984 3.18555 5.27976 3.18555 4.63803 3.51253C4.07354 3.80015 3.6146 4.25909 3.32698 4.82358C3 5.46531 3 6.30539 3 7.98555V16.3855C3 18.0657 3 18.9058 3.32698 19.5475C3.6146 20.112 4.07354 20.5709 4.63803 20.8586C5.27976 21.1855 6.11984 21.1855 7.8 21.1855Z" stroke="#062617" stroke-width="2" stroke-linecap="round" stroke-linejoin="round"/>
</svg>
