<svg width="25" height="25" viewBox="0 0 25 25" fill="none" xmlns="http://www.w3.org/2000/svg">
<path d="M13.5 11.1855H18.3C19.4201 11.1855 19.9802 11.1855 20.408 11.4035C20.7843 11.5953 21.0903 11.9012 21.282 12.2776C21.5 12.7054 21.5 13.2654 21.5 14.3855V21.1855M13.5 21.1855V6.38555C13.5 5.26544 13.5 4.70539 13.282 4.27757C13.0903 3.90124 12.7843 3.59528 12.408 3.40353C11.9802 3.18555 11.4201 3.18555 10.3 3.18555H6.7C5.5799 3.18555 5.01984 3.18555 4.59202 3.40353C4.21569 3.59528 3.90973 3.90124 3.71799 4.27757C3.5 4.70539 3.5 5.26544 3.5 6.38555V21.1855M22.5 21.1855H2.5M7 7.18555H10M7 11.1855H10M7 15.1855H10" stroke="#062617" stroke-width="2" stroke-linecap="round" stroke-linejoin="round"/>
</svg>
