<svg width="24" height="24" viewBox="0 0 24 24" fill="none" xmlns="http://www.w3.org/2000/svg">
<path d="M20 18H5V5C5 4.448 4.552 4 4 4C3.448 4 3 4.448 3 5V19C3 19.552 3.448 20 4 20H20C20.552 20 21 19.552 21 19C21 18.448 20.552 18 20 18Z" fill="#062617"/>
<path d="M6.999 15C7.303 15 7.603 14.862 7.8 14.6L10.109 11.522L13.294 14.707C13.685 15.098 14.317 15.098 14.708 14.707L18 11.414V12.207C18 12.759 18.448 13.207 19 13.207C19.552 13.207 20 12.759 20 12.207V9C20 8.87 19.973 8.74 19.923 8.618C19.822 8.374 19.627 8.179 19.382 8.077C19.26 8.027 19.13 8 19 8H15.793C15.241 8 14.793 8.448 14.793 9C14.793 9.552 15.241 10 15.793 10H16.586L14 12.586L10.707 9.293C10.502 9.087 10.216 8.982 9.929 9.002C9.64 9.023 9.374 9.168 9.2 9.4L6.2 13.4C5.868 13.842 5.958 14.469 6.4 14.8C6.58 14.935 6.791 15 6.999 15Z" fill="#062617"/>
</svg>
