<svg width="43" height="43" viewBox="0 0 43 43" fill="none" xmlns="http://www.w3.org/2000/svg">
<path fill-rule="evenodd" clip-rule="evenodd" d="M16.1253 5.37508V8.95841H26.8753V5.37508H16.1253ZM12.542 5.37508C12.542 3.39606 14.1463 1.79175 16.1253 1.79175H26.8753C28.8543 1.79175 30.4587 3.39606 30.4587 5.37508V8.95841C30.4587 10.9374 28.8543 12.5417 26.8753 12.5417H16.1253C14.1463 12.5417 12.542 10.9374 12.542 8.95841V5.37508Z" fill="#017649"/>
<path fill-rule="evenodd" clip-rule="evenodd" d="M26.8753 7.16667C26.8753 6.17716 27.6775 5.375 28.667 5.375H32.2503C33.6759 5.375 35.043 5.94129 36.051 6.9493C37.059 7.95731 37.6253 9.32446 37.6253 10.75V35.8333C37.6253 37.2589 37.059 38.626 36.051 39.634C35.043 40.642 33.6759 41.2083 32.2503 41.2083H22.3962C21.4066 41.2083 20.6045 40.4062 20.6045 39.4167C20.6045 38.4272 21.4066 37.625 22.3962 37.625H32.2503C32.7255 37.625 33.1812 37.4362 33.5172 37.1002C33.8532 36.7642 34.042 36.3085 34.042 35.8333V10.75C34.042 10.2748 33.8532 9.8191 33.5172 9.4831C33.1812 9.1471 32.7255 8.95833 32.2503 8.95833H28.667C27.6775 8.95833 26.8753 8.15618 26.8753 7.16667Z" fill="#017649"/>
<path fill-rule="evenodd" clip-rule="evenodd" d="M10.75 8.95833C10.2748 8.95833 9.8191 9.1471 9.4831 9.4831C9.1471 9.8191 8.95833 10.2748 8.95833 10.75V24.1875C8.95833 25.177 8.15618 25.9792 7.16667 25.9792C6.17716 25.9792 5.375 25.177 5.375 24.1875V10.75C5.375 9.32446 5.94129 7.95731 6.9493 6.9493C7.95731 5.94129 9.32446 5.375 10.75 5.375H14.3333C15.3228 5.375 16.125 6.17716 16.125 7.16667C16.125 8.15618 15.3228 8.95833 14.3333 8.95833H10.75Z" fill="#017649"/>
<path fill-rule="evenodd" clip-rule="evenodd" d="M19.136 20.1341C19.8151 19.8528 20.5429 19.708 21.278 19.708C22.0131 19.708 22.7409 19.8528 23.42 20.1341C24.0992 20.4154 24.7162 20.8277 25.236 21.3475C25.7557 21.8672 26.1681 22.4843 26.4493 23.1634C26.7306 23.8425 26.8754 24.5704 26.8754 25.3054C26.8754 26.0405 26.7306 26.7684 26.4493 27.4475C26.1681 28.1266 25.7557 28.7437 25.236 29.2634L16.2547 38.2375C16.2547 38.2376 16.2546 38.2376 16.2546 38.2376C15.616 38.8765 14.8267 39.3442 13.9596 39.5974L8.81695 41.0972C8.81694 41.0972 8.81692 41.0972 8.81691 41.0972C8.3544 41.2321 7.86415 41.2402 7.39747 41.1206C6.93075 41.001 6.50477 40.7582 6.1641 40.4175C5.82344 40.0769 5.58061 39.6509 5.46104 39.1842C5.34147 38.7175 5.34955 38.2272 5.48444 37.7647C5.48444 37.7647 5.48445 37.7647 5.48445 37.7647L6.98424 32.6221C7.23737 31.7552 7.70486 30.966 8.34351 30.3275C8.34371 30.3273 8.34391 30.3271 8.34411 30.3269L17.3198 21.3477L18.5854 22.6128L17.32 21.3475C17.8398 20.8277 18.4568 20.4154 19.136 20.1341ZM19.8541 23.881C19.854 23.8811 19.8539 23.8812 19.8538 23.8813L10.8772 32.8614C10.6644 33.0742 10.5085 33.3371 10.4241 33.6259C10.4241 33.626 10.4241 33.626 10.424 33.6261C10.424 33.6262 10.424 33.6263 10.4239 33.6265L9.38179 37.1999L12.9552 36.1577C12.9554 36.1577 12.9556 36.1576 12.9557 36.1576C13.2446 36.0731 13.5075 35.9173 13.7202 35.7044L22.7022 26.7296C22.8892 26.5426 23.0376 26.3206 23.1388 26.0762C23.24 25.8318 23.2921 25.5699 23.2921 25.3054C23.2921 25.0409 23.24 24.779 23.1388 24.5347C23.0376 24.2903 22.8892 24.0683 22.7022 23.8813C22.5152 23.6942 22.2931 23.5459 22.0488 23.4447C21.8044 23.3434 21.5425 23.2913 21.278 23.2913C21.0135 23.2913 20.7516 23.3434 20.5072 23.4447C20.263 23.5458 20.041 23.6941 19.8541 23.881ZM7.81437 37.657C7.81413 37.657 7.8139 37.6571 7.81367 37.6572C7.81365 37.6572 7.81364 37.6572 7.81362 37.6572M7.81437 37.657L7.81367 37.6572Z" fill="#017649"/>
</svg>
