<svg width="24" height="25" viewBox="0 0 24 25" fill="none" xmlns="http://www.w3.org/2000/svg">
<path d="M13.5295 8.5374C12.9571 8.9455 12.2566 9.18555 11.5 9.18555C9.567 9.18555 8 7.61854 8 5.68555C8 3.75255 9.567 2.18555 11.5 2.18555C12.753 2.18555 13.8522 2.84396 14.4705 3.83369M6 20.2727H8.61029C8.95063 20.2727 9.28888 20.3132 9.61881 20.3942L12.3769 21.0644C12.9753 21.2102 13.5988 21.2244 14.2035 21.1069L17.253 20.5137C18.0585 20.3567 18.7996 19.971 19.3803 19.406L21.5379 17.3073C22.154 16.7089 22.154 15.738 21.5379 15.1386C20.9832 14.599 20.1047 14.5382 19.4771 14.9959L16.9626 16.8304C16.6025 17.0936 16.1643 17.2354 15.7137 17.2354H13.2855L14.8311 17.2353C15.7022 17.2353 16.4079 16.5489 16.4079 15.7015V15.3947C16.4079 14.691 15.9156 14.0775 15.2141 13.9074L12.8286 13.3273C12.4404 13.2331 12.0428 13.1855 11.6431 13.1855C10.6783 13.1855 8.93189 13.9844 8.93189 13.9844L6 15.2104M20 6.68555C20 8.61854 18.433 10.1855 16.5 10.1855C14.567 10.1855 13 8.61854 13 6.68555C13 4.75255 14.567 3.18555 16.5 3.18555C18.433 3.18555 20 4.75255 20 6.68555ZM2 14.7855L2 20.5855C2 21.1456 2 21.4256 2.10899 21.6395C2.20487 21.8277 2.35785 21.9807 2.54601 22.0766C2.75992 22.1855 3.03995 22.1855 3.6 22.1855H4.4C4.96005 22.1855 5.24008 22.1855 5.45399 22.0766C5.64215 21.9807 5.79513 21.8277 5.89101 21.6395C6 21.4256 6 21.1456 6 20.5855V14.7855C6 14.2255 6 13.9455 5.89101 13.7316C5.79513 13.5434 5.64215 13.3904 5.45399 13.2945C5.24008 13.1855 4.96005 13.1855 4.4 13.1855L3.6 13.1855C3.03995 13.1855 2.75992 13.1855 2.54601 13.2945C2.35785 13.3904 2.20487 13.5434 2.10899 13.7316C2 13.9455 2 14.2255 2 14.7855Z" stroke="#062617" stroke-width="2" stroke-linecap="round" stroke-linejoin="round"/>
</svg>
