<svg width="17" height="10" viewBox="0 0 17 10" fill="none" xmlns="http://www.w3.org/2000/svg">
<path fill-rule="evenodd" clip-rule="evenodd" d="M9.41842 9.1564C9.17898 9.37641 8.85427 9.5 8.51569 9.5C8.17711 9.5 7.8524 9.37641 7.61296 9.1564L0.389808 2.51766C0.267856 2.40941 0.170582 2.27991 0.103664 2.13673C0.036745 1.99356 0.00152146 1.83956 4.82093e-05 1.68374C-0.00142504 1.52792 0.0308818 1.37339 0.095083 1.22916C0.159284 1.08494 0.254094 0.95391 0.373981 0.843723C0.493868 0.733536 0.636431 0.646396 0.793351 0.58739C0.950272 0.528383 1.11841 0.49869 1.28795 0.500044C1.45749 0.501398 1.62503 0.533772 1.78082 0.595276C1.9366 0.656781 2.07749 0.746184 2.19528 0.858269L8.51569 6.66732L14.8361 0.858269C15.0769 0.644498 15.3995 0.526212 15.7342 0.528886C16.069 0.531559 16.3893 0.65498 16.626 0.872564C16.8628 1.09015 16.997 1.38449 17 1.69219C17.0029 1.99989 16.8742 2.29633 16.6416 2.51766L9.41842 9.1564Z" fill="#07F258"/>
</svg>
