<svg width="24" height="24" viewBox="0 0 24 24" fill="none" xmlns="http://www.w3.org/2000/svg">
<path d="M16.454 18.453C16.33 18.577 16.193 18.685 16.051 18.784L16.067 20H4V9H7C8.103 9 9 8.103 9 7V4H16V5C16 5.047 16.02 5.087 16.027 5.131C16.608 4.651 17.275 4.31 18 4.141V4C18 2.897 17.133 2 16.067 2H7.829C7.027 2 6.273 2.312 5.707 2.879L2.879 5.707C2.312 6.273 2 7.027 2 7.829V20C2 21.103 2.867 22 3.933 22H16.067C17.133 22 18 21.103 18 20V16.907L16.454 18.453ZM7 4.414V7H4.414L7 4.414Z" fill="#062617"/>
<path d="M10.961 18C11.023 18 11.087 17.994 11.15 17.981L14.549 17.301C14.735 17.264 14.906 17.172 15.04 17.038L21.157 10.921C22.282 9.797 22.282 7.967 21.157 6.843C20.594 6.281 19.856 6 19.117 6C18.379 6 17.64 6.281 17.078 6.844L10.961 12.961C10.827 13.095 10.735 13.266 10.698 13.452L10.018 16.851C9.955 17.166 10.054 17.492 10.281 17.719C10.464 17.901 10.709 18 10.961 18ZM18.438 8.203C18.625 8.016 18.872 7.922 19.118 7.922C19.364 7.922 19.61 8.016 19.798 8.203C20.173 8.578 20.173 9.188 19.798 9.563L19.482 9.879L18.122 8.519L18.438 8.203ZM12.527 14.114L16.763 9.877L18.123 11.237L13.886 15.473L12.187 15.813L12.527 14.114Z" fill="#062617"/>
</svg>
