<svg width="24" height="24" viewBox="0 0 24 24" fill="none" xmlns="http://www.w3.org/2000/svg">
<path d="M20.747 11.3636L18.9448 9.56358L12.6371 3.26351C12.4681 3.09478 12.2389 3 12 3C11.7611 3 11.5319 3.09478 11.3629 3.26351L5.05517 9.56358L3.25295 11.3636C3.08881 11.5333 2.99798 11.7607 3.00003 11.9967C3.00209 12.2326 3.09686 12.4584 3.26393 12.6252C3.431 12.7921 3.65701 12.8868 3.89328 12.8888C4.12954 12.8909 4.35717 12.8002 4.52712 12.6362L4.79114 12.3725V19.2C4.79114 19.6774 4.98102 20.1352 5.319 20.4728C5.65698 20.8104 6.11538 21 6.59336 21H10.1978C10.4368 21 10.666 20.9052 10.835 20.7364C11.004 20.5676 11.0989 20.3387 11.0989 20.1V15.5999H12.9011V20.1C12.9011 20.3387 12.996 20.5676 13.165 20.7364C13.334 20.9052 13.5632 21 13.8022 21H17.4066C17.8846 21 18.343 20.8104 18.681 20.4728C19.019 20.1352 19.2089 19.6774 19.2089 19.2V12.3725L19.4729 12.6362C19.6428 12.8002 19.8705 12.8909 20.1067 12.8888C20.343 12.8868 20.569 12.7921 20.7361 12.6252C20.9031 12.4584 20.9979 12.2326 21 11.9967C21.002 11.7607 20.9112 11.5333 20.747 11.3636ZM17.4066 19.2H14.7033V15.5999C14.7033 15.1225 14.5134 14.6647 14.1755 14.3271C13.8375 13.9896 13.3791 13.7999 12.9011 13.7999H11.0989C10.6209 13.7999 10.1625 13.9896 9.82453 14.3271C9.48655 14.6647 9.29668 15.1225 9.29668 15.5999V19.2H6.59336V10.5725L12 5.17243L17.4066 10.5725V19.2Z" fill="#017649"/>
</svg>
