<svg width="43" height="43" viewBox="0 0 43 43" fill="none" xmlns="http://www.w3.org/2000/svg">
<path fill-rule="evenodd" clip-rule="evenodd" d="M20.6979 3.77782C23.2753 2.16088 26.3251 1.46647 29.3484 1.80818C32.3717 2.1499 35.1895 3.50751 37.3409 5.65892C39.4923 7.81033 40.8499 10.6282 41.1917 13.6515C41.5334 16.6748 40.839 19.7246 39.222 22.3019C37.6051 24.8792 35.1614 26.8315 32.2906 27.8394C29.7825 28.72 27.0781 28.8342 24.5188 28.1815L23.8168 28.8835C23.8168 28.8835 23.8167 28.8836 23.8167 28.8837C22.8089 29.8916 21.4421 30.458 20.0167 30.4583H19.7082V32.25C19.7082 33.2004 19.3306 34.1118 18.6586 34.7838C17.9866 35.4558 17.0752 35.8333 16.1248 35.8333H14.3332V37.625C14.3332 38.5754 13.9556 39.4868 13.2836 40.1588C12.6116 40.8308 11.7002 41.2083 10.7498 41.2083H5.37484C4.42448 41.2083 3.51305 40.8308 2.84104 40.1588C2.16903 39.4868 1.7915 38.5754 1.7915 37.625V33.7331C1.79181 32.3077 2.3583 30.9408 3.36638 29.933L14.8183 18.481C14.1657 15.9217 14.2798 13.2174 15.1604 10.7092C16.1683 7.83849 18.1206 5.39475 20.6979 3.77782ZM4.63657 31.2036L5.8998 32.4672C5.56386 32.803 5.37504 33.2585 5.37484 33.7335C5.37484 33.7336 5.37484 33.7338 5.37484 33.7339V37.625H10.7498V35.8333C10.7498 34.883 11.1274 33.9715 11.7994 33.2995C12.4714 32.6275 13.3828 32.25 14.3332 32.25H16.1248V30.4583C16.1248 29.508 16.5024 28.5965 17.1744 27.9245C17.8464 27.2525 18.7578 26.875 19.7082 26.875H20.016C20.0161 26.875 20.0162 26.875 20.0163 26.875C20.4913 26.8748 20.9468 26.686 21.2827 26.35L22.5443 27.6113L21.2829 26.3499L22.7413 24.8914C23.2273 24.4054 23.9485 24.2403 24.5976 24.4664C26.7046 25.2004 28.9983 25.1976 31.1036 24.4584C33.2088 23.7193 35.0008 22.2876 36.1866 20.3976C37.3724 18.5075 37.8816 16.271 37.631 14.0539C37.3804 11.8368 36.3848 9.77042 34.8071 8.19272C33.2294 6.61502 31.163 5.61944 28.9459 5.36885C26.7288 5.11826 24.4923 5.62749 22.6023 6.81324C20.7122 7.999 19.2805 9.79107 18.5414 11.8963C17.8023 14.0015 17.7995 16.2953 18.5335 18.4023C18.7596 19.0514 18.5944 19.7726 18.1084 20.2586L5.89999 32.467L4.63657 31.2036Z" fill="#017649"/>
<path d="M29.5623 14.3334C30.0571 14.3334 30.4582 13.9323 30.4582 13.4376C30.4582 12.9428 30.0571 12.5417 29.5623 12.5417C29.0676 12.5417 28.6665 12.9428 28.6665 13.4376C28.6665 13.9323 29.0676 14.3334 29.5623 14.3334Z" fill="#017649"/>
<path fill-rule="evenodd" clip-rule="evenodd" d="M29.5625 14.3333C30.0573 14.3333 30.4583 13.9323 30.4583 13.4375C30.4583 12.9427 30.0573 12.5417 29.5625 12.5417C29.0677 12.5417 28.6667 12.9427 28.6667 13.4375C28.6667 13.9323 29.0677 14.3333 29.5625 14.3333ZM26.875 13.4375C26.875 11.9532 28.0782 10.75 29.5625 10.75C31.0468 10.75 32.25 11.9532 32.25 13.4375C32.25 14.9218 31.0468 16.125 29.5625 16.125C28.0782 16.125 26.875 14.9218 26.875 13.4375Z" fill="#017649"/>
</svg>
