<svg width="20" height="20" viewBox="0 0 20 20" fill="none" xmlns="http://www.w3.org/2000/svg">
<path d="M8 0C6.41775 0 4.87103 0.469192 3.55544 1.34824C2.23985 2.22729 1.21447 3.47672 0.608967 4.93853C0.00346625 6.40034 -0.15496 8.00887 0.153721 9.56072C0.462403 11.1126 1.22433 12.538 2.34315 13.6569C3.46197 14.7757 4.88743 15.5376 6.43928 15.8463C7.99113 16.155 9.59966 15.9965 11.0615 15.391C12.5233 14.7855 13.7727 13.7602 14.6518 12.4446C15.5308 11.129 16 9.58225 16 8C15.9976 5.879 15.154 3.84555 13.6542 2.34578C12.1545 0.846002 10.121 0.00238211 8 0ZM8 14C6.81332 14 5.65328 13.6481 4.66658 12.9888C3.67989 12.3295 2.91085 11.3925 2.45673 10.2961C2.0026 9.19974 1.88378 7.99334 2.11529 6.82946C2.3468 5.66557 2.91825 4.59647 3.75736 3.75736C4.59648 2.91824 5.66558 2.3468 6.82946 2.11529C7.99335 1.88378 9.19975 2.0026 10.2961 2.45672C11.3925 2.91085 12.3295 3.67988 12.9888 4.66658C13.6481 5.65327 14 6.81331 14 8C13.9984 9.59081 13.3658 11.116 12.2409 12.2409C11.116 13.3658 9.59082 13.9984 8 14Z" fill="#062617"/>
<path d="M19.707 18.293L15.707 14.293C15.5184 14.1108 15.2658 14.01 15.0036 14.0123C14.7414 14.0146 14.4906 14.1198 14.3052 14.3052C14.1198 14.4906 14.0146 14.7414 14.0123 15.0036C14.0101 15.2658 14.1108 15.5184 14.293 15.707L18.293 19.707C18.4816 19.8892 18.7342 19.99 18.9964 19.9877C19.2586 19.9854 19.5094 19.8802 19.6948 19.6948C19.8802 19.5094 19.9854 19.2586 19.9877 18.9964C19.99 18.7342 19.8892 18.4816 19.707 18.293Z" fill="#062617"/>
<path d="M11 7H9V5C9 4.73478 8.89465 4.48043 8.70711 4.29289C8.51957 4.10536 8.26522 4 8 4C7.73479 4 7.48043 4.10536 7.2929 4.29289C7.10536 4.48043 7 4.73478 7 5V7H5C4.73479 7 4.48043 7.10536 4.2929 7.29289C4.10536 7.48043 4 7.73478 4 8C4 8.26522 4.10536 8.51957 4.2929 8.70711C4.48043 8.89464 4.73479 9 5 9H7V11C7 11.2652 7.10536 11.5196 7.2929 11.7071C7.48043 11.8946 7.73479 12 8 12C8.26522 12 8.51957 11.8946 8.70711 11.7071C8.89465 11.5196 9 11.2652 9 11V9H11C11.2652 9 11.5196 8.89464 11.7071 8.70711C11.8946 8.51957 12 8.26522 12 8C12 7.73478 11.8946 7.48043 11.7071 7.29289C11.5196 7.10536 11.2652 7 11 7Z" fill="#062617"/>
</svg>
