<svg width="20" height="20" viewBox="0 0 20 20" fill="none" xmlns="http://www.w3.org/2000/svg">
<path d="M19.7034 2.40546C19.612 1.87943 19.3603 1.39446 18.9829 1.01683C18.6055 0.639195 18.1206 0.387316 17.5947 0.29561C14.9456 -0.160631 11.3926 -0.314112 9.53718 1.54239C8.67292 2.50361 7.89615 3.54004 7.21612 4.63935L3.50116 4.95473C3.25421 4.97575 3.02263 5.08335 2.84731 5.25854L0.616648 7.48823C0.3403 7.76426 0.146308 8.11183 0.0564253 8.49195C-0.0334576 8.87206 -0.0156777 9.26971 0.107771 9.64029C0.231221 10.0109 0.455458 10.3397 0.755339 10.59C1.05522 10.8403 1.41889 11.0021 1.80556 11.0572L3.25623 11.2675C2.88725 11.9234 2.55928 12.5153 2.29963 12.9894C2.07939 13.3872 1.99532 13.8461 2.06023 14.2961C2.12514 14.7461 2.33547 15.1626 2.65914 15.4819L4.52083 17.3436C4.83997 17.6672 5.25621 17.8775 5.70604 17.9424C6.15587 18.0074 6.61458 17.9233 7.01218 17.7032C7.48628 17.4435 8.07811 17.1155 8.73511 16.7465L8.94535 18.1962C9.00075 18.5822 9.16242 18.9452 9.41227 19.2446C9.66213 19.544 9.99033 19.7681 10.3602 19.8916C10.73 20.0152 11.127 20.0335 11.5066 19.9444C11.8863 19.8554 12.2337 19.6624 12.51 19.3873L14.7396 17.1576C14.9152 16.9824 15.0231 16.7508 15.0444 16.5037L15.3598 12.7886C16.4592 12.109 17.4956 11.3326 18.4567 10.4685C20.3152 8.60465 20.1607 5.05459 19.7034 2.40546ZM2.10305 8.97994L4.06145 7.01727L5.81486 6.86799C5.32185 7.6806 4.83514 8.50688 4.37576 9.30057L2.10305 8.97994ZM12.982 15.9413L11.0236 17.8998L10.6988 15.6238C11.4924 15.1655 12.3176 14.6777 13.1302 14.1847L12.982 15.9413ZM16.9703 8.97994C16.0681 9.77747 15.0972 10.4937 14.0689 11.1203C13.8901 11.1752 13.7298 11.2781 13.6053 11.4178C12.3828 12.1957 10.9637 13.0462 9.50565 13.8924C9.46835 13.8877 9.43076 13.8856 9.39317 13.8861C9.24183 13.908 9.09726 13.9633 8.96997 14.048C8.84268 14.1327 8.73588 14.2448 8.65732 14.376C7.7659 14.8837 6.87027 15.3841 6.00828 15.8572L4.13924 13.9986C4.61438 13.1313 5.11686 12.2325 5.6267 11.3379C5.75613 11.2598 5.86689 11.1543 5.95116 11.0288C6.03543 10.9033 6.09117 10.7608 6.11446 10.6115C6.11446 10.5736 6.10605 10.5379 6.10815 10.5C6.95542 9.03356 7.80795 7.61227 8.58689 6.38757C8.72357 6.26435 8.82483 6.10684 8.88018 5.93133C9.50746 4.90107 10.2247 3.92838 11.0236 3.02464C12.0114 2.30945 13.2278 1.98244 14.4411 2.10585C15.3778 2.11373 16.3121 2.20094 17.2341 2.36656C17.3334 2.38217 17.4253 2.42882 17.4965 2.49982C17.5677 2.57083 17.6145 2.66254 17.6304 2.76183C18.1424 5.72844 17.8953 8.05064 16.9703 8.97994Z" fill="#062617"/>
<path d="M11.0236 4.51531C10.4316 5.10666 10.0987 5.90898 10.0982 6.74577C10.0977 7.58255 10.4296 8.38527 11.021 8.97731C11.6123 9.56936 12.4146 9.90225 13.2513 9.90274C14.0881 9.90323 14.8908 9.57129 15.4828 8.97994C15.7757 8.68708 16.008 8.33939 16.1666 7.95673C16.3251 7.57407 16.4067 7.16393 16.4067 6.74973C16.4067 6.33553 16.3251 5.92538 16.1666 5.54272C16.008 5.16006 15.7757 4.81237 15.4828 4.51951C14.8823 3.9463 14.0842 3.62613 13.254 3.62535C12.4239 3.62457 11.6252 3.94323 11.0236 4.51531ZM13.9974 7.48717C13.7978 7.6795 13.5314 7.78695 13.2542 7.78695C12.9771 7.78695 12.7107 7.6795 12.511 7.48717C12.3641 7.34011 12.2641 7.15279 12.2237 6.9489C12.1832 6.74501 12.2041 6.5337 12.2837 6.34168C12.3633 6.14966 12.498 5.98555 12.6709 5.87009C12.8437 5.75463 13.0469 5.693 13.2548 5.693C13.4626 5.693 13.6658 5.75463 13.8387 5.87009C14.0115 5.98555 14.1462 6.14966 14.2258 6.34168C14.3054 6.5337 14.3263 6.74501 14.2859 6.9489C14.2454 7.15279 14.1454 7.34011 13.9985 7.48717H13.9974Z" fill="#062617"/>
</svg>
