<svg width="22" height="22" viewBox="0 0 22 22" fill="none" xmlns="http://www.w3.org/2000/svg">
<path d="M11.2704 8.26308C10.7062 8.20735 10.1385 8.32739 9.64513 8.60675C9.15175 8.88611 8.75679 9.31114 8.5143 9.82365C8.27182 10.3362 8.19368 10.9111 8.29057 11.4697C8.38747 12.0284 8.65466 12.5434 9.05557 12.9443C9.45649 13.3452 9.97152 13.6124 10.5302 13.7093C11.0888 13.8062 11.6637 13.7281 12.1762 13.4856C12.6887 13.2431 13.1138 12.8481 13.3931 12.3548C13.6725 11.8614 13.7925 11.2937 13.7368 10.7295C13.6733 10.097 13.393 9.50588 12.9435 9.05637C12.494 8.60687 11.9029 8.3266 11.2704 8.26308V8.26308ZM17.8919 10.9998C17.8901 11.2987 17.8682 11.5971 17.8261 11.8931L19.7688 13.4167C19.8533 13.4869 19.9103 13.5847 19.9296 13.6929C19.9489 13.801 19.9292 13.9125 19.874 14.0076L18.0363 17.1873C17.9804 17.2814 17.8932 17.3527 17.7899 17.3888C17.6866 17.4249 17.5739 17.4234 17.4716 17.3845L15.5423 16.6076C15.436 16.5652 15.3207 16.5499 15.207 16.5631C15.0932 16.5762 14.9845 16.6173 14.8905 16.6828C14.5961 16.8856 14.2867 17.0657 13.965 17.2216C13.8638 17.2708 13.7763 17.3441 13.7103 17.4351C13.6442 17.526 13.6015 17.6319 13.586 17.7433L13.2968 19.801C13.2778 19.9097 13.2217 20.0084 13.138 20.0803C13.0543 20.1522 12.9482 20.1927 12.8379 20.1951H9.16235C9.05387 20.1932 8.94927 20.1544 8.86577 20.0851C8.78228 20.0159 8.72487 19.9202 8.70301 19.8139L8.41426 17.7592C8.39805 17.6466 8.35426 17.5397 8.28679 17.4481C8.21933 17.3565 8.13027 17.283 8.02754 17.2341C7.70623 17.079 7.39787 16.8984 7.10543 16.694C7.0118 16.6288 6.90343 16.588 6.79009 16.5752C6.67675 16.5623 6.562 16.5779 6.45618 16.6205L4.52731 17.3969C4.42509 17.4359 4.31241 17.4375 4.20913 17.4015C4.10584 17.3655 4.01858 17.2942 3.9627 17.2001L2.12493 14.0205C2.06968 13.9255 2.04993 13.8139 2.06921 13.7057C2.08849 13.5975 2.14554 13.4997 2.2302 13.4296L3.87204 12.1406C3.96199 12.0692 4.03268 11.9764 4.0777 11.8708C4.12272 11.7651 4.14065 11.6499 4.12985 11.5356C4.11438 11.3564 4.10493 11.1776 4.10493 10.9985C4.10493 10.8193 4.11395 10.6431 4.12985 10.4678C4.13947 10.3542 4.12066 10.2399 4.07513 10.1353C4.0296 10.0308 3.95877 9.93919 3.86903 9.86882L2.22805 8.57975C2.14476 8.50933 2.08891 8.41183 2.07029 8.30436C2.05168 8.19688 2.07147 8.08629 2.12622 7.99194L3.96399 4.81226C4.0198 4.71815 4.10704 4.64676 4.21033 4.61068C4.31362 4.5746 4.42633 4.57614 4.5286 4.61503L6.4579 5.3919C6.56429 5.43426 6.67953 5.44957 6.79329 5.43645C6.90705 5.42332 7.01578 5.38218 7.10973 5.31671C7.40418 5.11395 7.71358 4.93382 8.03528 4.77788C8.13642 4.72872 8.2239 4.65542 8.28999 4.56445C8.35609 4.47347 8.39877 4.36762 8.41426 4.25624L8.70344 2.19847C8.72244 2.08979 8.77858 1.99108 8.86228 1.91922C8.94599 1.84735 9.05205 1.80678 9.16235 1.80444H12.8379C12.9464 1.80632 13.051 1.84509 13.1345 1.91437C13.218 1.98365 13.2754 2.07931 13.2972 2.18558L13.586 4.24034C13.6022 4.35295 13.646 4.4598 13.7134 4.55141C13.7809 4.64301 13.87 4.71653 13.9727 4.76542C14.294 4.92052 14.6024 5.10114 14.8948 5.30554C14.9884 5.37068 15.0968 5.41151 15.2102 5.42434C15.3235 5.43716 15.4382 5.42159 15.5441 5.37901L17.4729 4.60257C17.5752 4.56364 17.6878 4.56204 17.7911 4.59804C17.8944 4.63404 17.9817 4.70533 18.0375 4.79936L19.8753 7.97905C19.9306 8.07405 19.9503 8.18558 19.931 8.29377C19.9118 8.40196 19.8547 8.4998 19.77 8.56987L18.1282 9.85893C18.0379 9.93011 17.9668 10.0227 17.9214 10.1284C17.876 10.2341 17.8577 10.3494 17.8682 10.4639C17.8824 10.6418 17.8919 10.8206 17.8919 10.9998Z" stroke="#017649" stroke-width="2" stroke-linecap="round" stroke-linejoin="round"/>
</svg>
