<svg width="24" height="24" viewBox="0 0 24 24" fill="none" xmlns="http://www.w3.org/2000/svg">
<path d="M9.29859 22C9.0127 22 8.73852 21.8946 8.53636 21.7071C8.3342 21.5196 8.22063 21.2652 8.22063 21V11C8.22063 10.7348 8.3342 10.4804 8.53636 10.2929C8.73852 10.1054 9.0127 10 9.29859 10C9.58449 10 9.85867 10.1054 10.0608 10.2929C10.263 10.4804 10.3766 10.7348 10.3766 11V21C10.3766 21.2652 10.263 21.5196 10.0608 21.7071C9.85867 21.8946 9.58449 22 9.29859 22Z" fill="#062617"/>
<path d="M9.29859 22C9.0127 22 8.73852 21.8946 8.53636 21.7071L5.3026 18.707C5.10624 18.5184 4.99758 18.2658 5.00004 18.0036C5.0025 17.7414 5.11586 17.4906 5.31573 17.3052C5.51559 17.1198 5.78596 17.0146 6.06859 17.0123C6.35123 17.01 6.62353 17.1108 6.82683 17.293L9.29859 19.586L11.7704 17.293C11.9737 17.1108 12.246 17.01 12.5286 17.0123C12.8112 17.0146 13.0816 17.1198 13.2815 17.3052C13.4813 17.4906 13.5947 17.7414 13.5971 18.0036C13.5996 18.2658 13.4909 18.5184 13.2946 18.707L10.0608 21.7071C9.85867 21.8946 9.58449 22 9.29859 22Z" fill="#062617"/>
<path d="M14.6884 14C14.4025 14 14.1283 13.8946 13.9262 13.7071C13.724 13.5196 13.6104 13.2652 13.6104 13V3C13.6104 2.73478 13.724 2.48043 13.9262 2.29289C14.1283 2.10536 14.4025 2 14.6884 2C14.9743 2 15.2485 2.10536 15.4506 2.29289C15.6528 2.48043 15.7664 2.73478 15.7664 3V13C15.7664 13.2652 15.6528 13.5196 15.4506 13.7071C15.2485 13.8946 14.9743 14 14.6884 14Z" fill="#062617"/>
<path d="M17.9223 7C17.6364 6.99994 17.3623 6.89455 17.1602 6.707L14.6884 4.414L12.2166 6.707C12.0133 6.88916 11.741 6.98995 11.4584 6.98767C11.1758 6.9854 10.9054 6.88023 10.7055 6.69482C10.5057 6.50941 10.3923 6.2586 10.3898 5.9964C10.3874 5.7342 10.496 5.4816 10.6924 5.293L13.9262 2.29289C14.1283 2.10536 14.4025 2 14.6884 2C14.9743 2 15.2485 2.10536 15.4506 2.29289L18.6844 5.293C18.8351 5.43285 18.9377 5.61102 18.9793 5.80497C19.0209 5.99892 18.9995 6.19995 18.918 6.38265C18.8364 6.56535 18.6983 6.72152 18.521 6.8314C18.3438 6.94129 18.1354 6.99996 17.9223 7Z" fill="#062617"/>
</svg>
