<svg width="24" height="24" viewBox="0 0 24 24" fill="none" xmlns="http://www.w3.org/2000/svg">
<path d="M12 17C11.0111 17 10.0444 16.7068 9.22215 16.1573C8.3999 15.6079 7.75904 14.827 7.3806 13.9134C7.00216 12.9998 6.90315 11.9945 7.09607 11.0245C7.289 10.0546 7.7652 9.16373 8.46447 8.46447C9.16373 7.7652 10.0546 7.289 11.0245 7.09607C11.9945 6.90315 12.9998 7.00216 13.9134 7.3806C14.827 7.75904 15.6079 8.3999 16.1573 9.22215C16.7068 10.0444 17 11.0111 17 12C16.9984 13.3256 16.4711 14.5964 15.5338 15.5338C14.5964 16.4711 13.3256 16.9984 12 17ZM12 9C11.4067 9 10.8266 9.17595 10.3333 9.50559C9.83994 9.83524 9.45542 10.3038 9.22836 10.8519C9.0013 11.4001 8.94189 12.0033 9.05764 12.5853C9.1734 13.1672 9.45912 13.7018 9.87868 14.1213C10.2982 14.5409 10.8328 14.8266 11.4147 14.9424C11.9967 15.0581 12.5999 14.9987 13.1481 14.7716C13.6962 14.5446 14.1648 14.1601 14.4944 13.6667C14.8241 13.1734 15 12.5933 15 12C15 11.2044 14.6839 10.4413 14.1213 9.87868C13.5587 9.31607 12.7956 9 12 9Z" fill="#062617"/>
<path d="M12 6C11.7348 6 11.4804 5.89464 11.2929 5.70711C11.1054 5.51957 11 5.26522 11 5V3C11 2.73478 11.1054 2.48043 11.2929 2.29289C11.4804 2.10536 11.7348 2 12 2C12.2652 2 12.5196 2.10536 12.7071 2.29289C12.8946 2.48043 13 2.73478 13 3V5C13 5.26522 12.8946 5.51957 12.7071 5.70711C12.5196 5.89464 12.2652 6 12 6Z" fill="#062617"/>
<path d="M12 22C11.7348 22 11.4804 21.8946 11.2929 21.7071C11.1054 21.5196 11 21.2652 11 21V19C11 18.7348 11.1054 18.4804 11.2929 18.2929C11.4804 18.1054 11.7348 18 12 18C12.2652 18 12.5196 18.1054 12.7071 18.2929C12.8946 18.4804 13 18.7348 13 19V21C13 21.2652 12.8946 21.5196 12.7071 21.7071C12.5196 21.8946 12.2652 22 12 22Z" fill="#062617"/>
<path d="M7.05 8.05C6.78481 8.04994 6.53049 7.94455 6.343 7.757L4.929 6.343C4.74684 6.1544 4.64605 5.9018 4.64833 5.6396C4.6506 5.3774 4.75577 5.12659 4.94118 4.94118C5.12659 4.75577 5.3774 4.6506 5.6396 4.64833C5.9018 4.64605 6.1544 4.74684 6.343 4.929L7.757 6.343C7.89681 6.48285 7.99202 6.66102 8.03058 6.85497C8.06915 7.04892 8.04935 7.24995 7.97368 7.43265C7.89801 7.61535 7.76987 7.77152 7.60546 7.8814C7.44105 7.99129 7.24775 8.04996 7.05 8.05Z" fill="#062617"/>
<path d="M18.364 19.364C18.0988 19.3639 17.8445 19.2585 17.657 19.071L16.243 17.657C16.0608 17.4684 15.96 17.2158 15.9623 16.9536C15.9646 16.6914 16.0698 16.4406 16.2552 16.2552C16.4406 16.0698 16.6914 15.9646 16.9536 15.9623C17.2158 15.96 17.4684 16.0608 17.657 16.243L19.071 17.657C19.2108 17.7969 19.306 17.975 19.3446 18.169C19.3832 18.3629 19.3633 18.564 19.2877 18.7467C19.212 18.9294 19.0839 19.0855 18.9195 19.1954C18.755 19.3053 18.5618 19.364 18.364 19.364Z" fill="#062617"/>
<path d="M5 13H3C2.73478 13 2.48043 12.8946 2.29289 12.7071C2.10536 12.5196 2 12.2652 2 12C2 11.7348 2.10536 11.4804 2.29289 11.2929C2.48043 11.1054 2.73478 11 3 11H5C5.26522 11 5.51957 11.1054 5.70711 11.2929C5.89464 11.4804 6 11.7348 6 12C6 12.2652 5.89464 12.5196 5.70711 12.7071C5.51957 12.8946 5.26522 13 5 13Z" fill="#062617"/>
<path d="M21 13H19C18.7348 13 18.4804 12.8946 18.2929 12.7071C18.1054 12.5196 18 12.2652 18 12C18 11.7348 18.1054 11.4804 18.2929 11.2929C18.4804 11.1054 18.7348 11 19 11H21C21.2652 11 21.5196 11.1054 21.7071 11.2929C21.8946 11.4804 22 11.7348 22 12C22 12.2652 21.8946 12.5196 21.7071 12.7071C21.5196 12.8946 21.2652 13 21 13Z" fill="#062617"/>
<path d="M5.636 19.364C5.43825 19.364 5.24495 19.3053 5.08054 19.1954C4.91613 19.0855 4.78799 18.9294 4.71232 18.7467C4.63665 18.564 4.61685 18.3629 4.65542 18.169C4.69398 17.975 4.78919 17.7969 4.929 17.657L6.343 16.243C6.5316 16.0608 6.7842 15.96 7.0464 15.9623C7.3086 15.9646 7.55941 16.0698 7.74482 16.2552C7.93023 16.4406 8.0354 16.6914 8.03767 16.9536C8.03995 17.2158 7.93916 17.4684 7.757 17.657L6.343 19.071C6.15551 19.2585 5.9012 19.3639 5.636 19.364Z" fill="#062617"/>
<path d="M16.95 8.05C16.7523 8.04996 16.559 7.99129 16.3945 7.8814C16.2301 7.77152 16.102 7.61535 16.0263 7.43265C15.9507 7.24995 15.9308 7.04892 15.9694 6.85497C16.008 6.66102 16.1032 6.48285 16.243 6.343L17.657 4.929C17.7492 4.83349 17.8596 4.75731 17.9816 4.7049C18.1036 4.65249 18.2348 4.6249 18.3676 4.62375C18.5004 4.6226 18.6321 4.6479 18.755 4.69818C18.8778 4.74846 18.9895 4.82271 19.0834 4.9166C19.1773 5.0105 19.2515 5.12215 19.3018 5.24505C19.3521 5.36794 19.3774 5.49962 19.3763 5.6324C19.3751 5.76518 19.3475 5.8964 19.2951 6.0184C19.2427 6.14041 19.1665 6.25075 19.071 6.343L17.657 7.757C17.4695 7.94455 17.2152 8.04994 16.95 8.05Z" fill="#062617"/>
</svg>
