<svg width="23" height="23" viewBox="0 0 23 23" fill="none" xmlns="http://www.w3.org/2000/svg">
<path d="M5.59436 10.4143C5.53221 10.0138 5.49996 9.6034 5.49996 9.18555C5.49996 4.76727 9.10525 1.18555 13.5526 1.18555C17.9999 1.18555 21.6052 4.76727 21.6052 9.18555C21.6052 10.1836 21.4213 11.139 21.0852 12.0201C21.0154 12.203 20.9804 12.2945 20.9646 12.366C20.9489 12.4367 20.9428 12.4865 20.9411 12.559C20.9394 12.6321 20.9493 12.7127 20.9692 12.8739L21.3717 16.1441C21.4153 16.4981 21.4371 16.6751 21.3782 16.8038C21.3266 16.9165 21.235 17.0061 21.1211 17.055C20.9911 17.111 20.8146 17.0851 20.4617 17.0334L17.2765 16.5665C17.1101 16.5421 17.027 16.5299 16.9512 16.5303C16.8763 16.5307 16.8245 16.5363 16.7511 16.5517C16.677 16.5673 16.5823 16.6027 16.393 16.6737C15.5097 17.0045 14.5524 17.1855 13.5526 17.1855C13.1344 17.1855 12.7237 17.1539 12.3227 17.0928M7.13158 21.1855C10.0965 21.1855 12.5 18.7231 12.5 15.6855C12.5 12.648 10.0965 10.1855 7.13158 10.1855C4.16668 10.1855 1.76316 12.648 1.76316 15.6855C1.76316 16.2961 1.86028 16.8835 2.03955 17.4323C2.11533 17.6643 2.15322 17.7802 2.16566 17.8595C2.17864 17.9422 2.18091 17.9887 2.17608 18.0723C2.17145 18.1523 2.15141 18.2428 2.11134 18.4239L1.5 21.1855L4.4948 20.7765C4.65827 20.7542 4.74 20.7431 4.81137 20.7435C4.88652 20.7441 4.92641 20.7481 5.00011 20.7628C5.0701 20.7768 5.17416 20.8135 5.38227 20.8869C5.93059 21.0805 6.51911 21.1855 7.13158 21.1855Z" stroke="#062617" stroke-width="2" stroke-linecap="round" stroke-linejoin="round"/>
</svg>
