<svg width="42" height="40" viewBox="0 0 42 40" fill="none" xmlns="http://www.w3.org/2000/svg">
<path d="M36.375 4.99998L26.125 4.99998M36.375 11.6666L26.125 11.6666M36.375 18.3333L26.125 18.3333M9.89582 22.9296V7.49998C9.89582 5.19879 11.8079 3.33331 14.1667 3.33331C16.5254 3.33331 18.4375 5.19879 18.4375 7.49998V22.9296C20.4977 24.275 21.8542 26.5663 21.8542 29.1666C21.8542 33.3088 18.4123 36.6666 14.1667 36.6666C9.92097 36.6666 6.47916 33.3088 6.47916 29.1666C6.47916 26.5663 7.8356 24.275 9.89582 22.9296ZM15.875 29.1666C15.875 30.0871 15.1101 30.8333 14.1667 30.8333C13.2232 30.8333 12.4583 30.0871 12.4583 29.1666C12.4583 28.2462 13.2232 27.5 14.1667 27.5C15.1101 27.5 15.875 28.2462 15.875 29.1666Z" stroke="#062617" stroke-width="3" stroke-linecap="round" stroke-linejoin="round"/>
</svg>
