<svg width="40" height="40" viewBox="0 0 40 40" fill="none" xmlns="http://www.w3.org/2000/svg">
<path d="M10.25 10.25L17.5625 17.5625M10.25 10.25H5.375L3.75 5.375L5.375 3.75L10.25 5.375V10.25ZM31.7959 4.95415L27.526 9.22402C26.8824 9.86755 26.5607 10.1893 26.4401 10.5603C26.3341 10.8867 26.3341 11.2383 26.4401 11.5647C26.5607 11.9357 26.8824 12.2574 27.526 12.901L27.9115 13.2865C28.5551 13.93 28.8768 14.2518 29.2478 14.3724C29.5742 14.4784 29.9258 14.4784 30.2522 14.3724C30.6232 14.2518 30.945 13.9301 31.5885 13.2865L35.5826 9.29242C36.0128 10.3392 36.25 11.4856 36.25 12.6875C36.25 17.6235 32.2485 21.625 27.3125 21.625C26.7174 21.625 26.1359 21.5668 25.5734 21.4559C24.7834 21.3001 24.3884 21.2222 24.1489 21.2461C23.8944 21.2714 23.7689 21.3096 23.5433 21.4303C23.3312 21.5438 23.1183 21.7567 22.6927 22.1823L11.0625 33.8125C9.71631 35.1587 7.5337 35.1587 6.1875 33.8125C4.84131 32.4663 4.84131 30.2837 6.1875 28.9375L17.8177 17.3073C18.2433 16.8817 18.4562 16.6688 18.5697 16.4567C18.6904 16.2311 18.7286 16.1056 18.7539 15.8511C18.7778 15.6116 18.6999 15.2166 18.5441 14.4266C18.4332 13.8641 18.375 13.2826 18.375 12.6875C18.375 7.75145 22.3765 3.75 27.3125 3.75C28.9464 3.75 30.478 4.18846 31.7959 4.95415ZM20.0001 24.8749L28.9375 33.8123C30.2837 35.1585 32.4663 35.1585 33.8125 33.8123C35.1587 32.4661 35.1587 30.2835 33.8125 28.9373L26.4599 21.5849C25.9394 21.5356 25.4319 21.4417 24.9413 21.307C24.309 21.1335 23.6155 21.2595 23.1519 21.723L20.0001 24.8749Z" stroke="#062617" stroke-width="3" stroke-linecap="round" stroke-linejoin="round"/>
</svg>
