<svg width="24" height="24" viewBox="0 0 24 24" fill="none" xmlns="http://www.w3.org/2000/svg">
<path d="M12 14.0001C12.7911 14.0001 13.5645 13.7655 14.2223 13.3259C14.8801 12.8864 15.3928 12.2617 15.6955 11.5308C15.9983 10.7999 16.0775 9.99562 15.9231 9.2197C15.7688 8.44377 15.3878 7.73104 14.8284 7.17163C14.269 6.61222 13.5563 6.23126 12.7804 6.07692C12.0044 5.92258 11.2002 6.00179 10.4693 6.30454C9.73836 6.60729 9.11365 7.11998 8.67412 7.77778C8.23459 8.43557 8 9.20893 8 10.0001C8 11.0609 8.42143 12.0783 9.17157 12.8285C9.92172 13.5786 10.9391 14.0001 12 14.0001ZM12 8.00006C12.3956 8.00006 12.7822 8.11736 13.1111 8.33712C13.44 8.55688 13.6964 8.86924 13.8478 9.23469C13.9991 9.60014 14.0387 10.0023 13.9616 10.3902C13.8844 10.7782 13.6939 11.1346 13.4142 11.4143C13.1345 11.694 12.7781 11.8845 12.3902 11.9616C12.0022 12.0388 11.6001 11.9992 11.2346 11.8478C10.8692 11.6964 10.5568 11.4401 10.3371 11.1112C10.1173 10.7823 10 10.3956 10 10.0001C10 9.46963 10.2107 8.96092 10.5858 8.58584C10.9609 8.21077 11.4696 8.00006 12 8.00006Z" fill="#062617"/>
<path d="M22 12.0001C22.0014 10.2704 21.5541 8.56989 20.7019 7.06474C19.8496 5.55958 18.6215 4.30122 17.1376 3.41259C15.6536 2.52395 13.9645 2.03541 12.2353 1.99471C10.5061 1.95401 8.7959 2.36253 7.27177 3.18037C5.74764 3.99821 4.46171 5.19739 3.53958 6.66078C2.61746 8.12417 2.09067 9.80172 2.0107 11.5296C1.93072 13.2574 2.30028 14.9764 3.08328 16.5188C3.86628 18.0611 5.03594 19.3739 6.478 20.3291C6.486 20.3351 6.491 20.3421 6.499 20.3481C6.537 20.3731 6.579 20.3901 6.618 20.4151C6.94053 20.6207 7.27439 20.808 7.618 20.9761C7.709 21.0201 7.799 21.0661 7.892 21.1071C8.28131 21.2867 8.68221 21.44 9.092 21.5661C9.141 21.5821 9.192 21.5911 9.243 21.6051C9.6115 21.7098 9.98581 21.7929 10.364 21.8541C10.474 21.8731 10.583 21.8911 10.693 21.9051C11.1261 21.9652 11.5627 21.997 12 22.0001C12.4349 21.9967 12.8692 21.9649 13.3 21.9051C13.41 21.8911 13.519 21.8731 13.629 21.8541C14.0072 21.7929 14.3815 21.7098 14.75 21.6051C14.8 21.5911 14.85 21.5821 14.901 21.5661C15.3108 21.44 15.7117 21.2867 16.101 21.1071C16.194 21.0661 16.284 21.0201 16.375 20.9761C16.7186 20.808 17.0525 20.6207 17.375 20.4151C17.414 20.3901 17.456 20.3731 17.494 20.3481C17.502 20.3421 17.507 20.3351 17.515 20.3291C18.8919 19.4187 20.0221 18.1817 20.8046 16.7284C21.5872 15.2751 21.9979 13.6507 22 12.0001ZM4 12.0001C3.99741 10.6727 4.32515 9.36551 4.95369 8.19637C5.58222 7.02722 6.49179 6.03285 7.60043 5.30286C8.70906 4.57287 9.98191 4.13021 11.3043 4.01478C12.6266 3.89934 13.9569 4.11476 15.1753 4.64161C16.3936 5.16847 17.4617 5.9902 18.2833 7.03275C19.1049 8.07531 19.6542 9.30591 19.8817 10.6137C20.1091 11.9214 20.0076 13.2652 19.5862 14.5239C19.1649 15.7827 18.4369 16.9168 17.468 17.8241C17.0637 16.9812 16.4302 16.2692 15.64 15.7698C14.8497 15.2703 13.9348 15.0036 13 15.0001H11C10.0652 15.0036 9.15025 15.2703 8.36004 15.7698C7.56982 16.2692 6.93628 16.9812 6.532 17.8241C5.73352 17.0785 5.09676 16.1768 4.6612 15.175C4.22564 14.1731 4.00059 13.0925 4 12.0001ZM14.845 19.4681C13.0096 20.15 10.9904 20.15 9.155 19.4681C9.12 19.4541 9.083 19.4431 9.048 19.4291C8.75112 19.3135 8.46158 19.1799 8.181 19.0291C8.38086 18.4393 8.75999 17.9267 9.26541 17.5629C9.77083 17.1991 10.3773 17.0023 11 17.0001H13C13.6225 17.0022 14.2287 17.1987 14.7341 17.5621C15.2395 17.9255 15.6188 18.4377 15.819 19.0271C15.5384 19.1779 15.2489 19.3115 14.952 19.4271C14.917 19.4431 14.88 19.4541 14.845 19.4681Z" fill="#062617"/>
</svg>
