<svg width="23" height="23" viewBox="0 0 23 23" fill="none" xmlns="http://www.w3.org/2000/svg">
<g clip-path="url(#clip0_6676_1124)">
<path d="M18.3155 0.199453C19.7253 0.199453 20.8686 1.19664 20.8686 2.42317C20.8686 3.6497 19.7224 4.64688 18.3155 4.64688H13.7223C12.5131 4.64688 11.387 4.8189 10.3756 5.16043C9.5274 5.46208 8.69071 5.93574 7.8884 6.57145C7.87408 6.58391 7.85688 6.59887 7.84256 6.61133C7.17779 7.25202 6.64769 7.98495 6.2666 8.78768C5.98292 9.36355 5.80527 10.1364 5.7365 11.0837C5.7365 11.1036 5.7365 11.1236 5.7365 11.1435C5.7365 12.1432 4.80238 12.9584 3.6505 12.9584H2.086C0.934115 12.9534 0 12.1382 0 11.1385V11.0712C0.0716346 9.62781 0.404019 8.27413 0.982827 7.04511C1.67338 5.58922 2.63615 4.36767 3.84248 3.41287C5.066 2.4107 6.53021 1.61545 8.18927 1.04955C9.88558 0.48365 11.7481 0.19696 13.7223 0.19696H18.3155" fill="#017649"/>
<path d="M19.307 10.4131C20.1694 10.4131 20.8686 11.0239 20.8686 11.7717C20.8686 13.285 20.5362 14.696 19.88 15.9674C19.2611 17.2587 18.3098 18.4728 17.049 19.5672L17.0347 19.5797C15.8055 20.5868 14.3384 21.3846 12.6765 21.9505C10.9802 22.5164 9.11765 22.8031 7.1434 22.8031H2.55592C1.14615 22.8056 0 21.8084 0 20.5818C0 19.3553 1.14615 18.3581 2.55592 18.3581H7.14913C8.35833 18.3581 9.48442 18.1861 10.493 17.8471C11.4558 17.513 12.3011 17.0319 13.006 16.4161C13.6421 15.8627 14.1779 15.1422 14.602 14.2647C14.8599 13.6539 15.0404 12.9858 15.1321 12.2778C15.1321 12.2703 15.1321 12.2654 15.1321 12.2579V11.7742C15.1321 11.0239 15.8341 10.4156 16.6937 10.4156H19.3041" fill="#017649"/>
</g>
</svg>
