<svg width="80" height="80" viewBox="0 0 80 80" fill="none" xmlns="http://www.w3.org/2000/svg">
<circle cx="40" cy="40" r="40" fill="#07F258"/>
<path fill-rule="evenodd" clip-rule="evenodd" d="M30.5 27.7499C30.2542 27.7499 30.0117 27.8071 29.7919 27.9171C29.572 28.027 29.3808 28.1866 29.2333 28.3833L26.6851 31.7704C26.6847 31.7708 26.6844 31.7712 26.6841 31.7716C26.4988 32.0197 26.3903 32.3166 26.3721 32.6257C26.3538 32.9352 26.4268 33.2433 26.5819 33.5117C26.582 33.5118 26.5821 33.5119 26.5821 33.512L33.7861 45.9567C34.2242 46.7135 33.9658 47.6821 33.209 48.1202C32.4522 48.5583 31.4836 48.3 31.0455 47.5432L23.8411 35.0978C23.3752 34.2924 23.156 33.3678 23.2109 32.4389C23.2658 31.5101 23.5923 30.6178 24.1499 29.8728C24.1507 29.8718 24.1514 29.8707 24.1522 29.8697L26.7 26.4833C26.7002 26.4829 26.7005 26.4826 26.7007 26.4822C27.1431 25.8928 27.7165 25.4143 28.3757 25.0847C29.0353 24.7549 29.7626 24.5833 30.5 24.5833H49.5C50.2374 24.5833 50.9647 24.7549 51.6242 25.0847C52.2838 25.4145 52.8575 25.8933 53.3 26.4833L55.8297 29.8668C55.8307 29.8681 55.8316 29.8693 55.8325 29.8705C56.3921 30.6123 56.7218 31.502 56.7809 32.4294C56.84 33.3583 56.6249 34.2841 56.1622 35.0918C56.161 35.094 56.1598 35.0961 56.1586 35.0982L48.9544 47.5432C48.5163 48.3 47.5477 48.5583 46.7909 48.1202C46.0341 47.6821 45.7757 46.7135 46.2138 45.9567L53.4144 33.518C53.4149 33.5171 53.4154 33.5162 53.4159 33.5153C53.569 33.2467 53.6402 32.9391 53.6206 32.6305C53.6009 32.3209 53.4906 32.0238 53.3035 31.7763C53.3019 31.7741 53.3002 31.7719 53.2986 31.7697L50.7666 28.3833C50.7665 28.383 50.7663 28.3828 50.7661 28.3825C50.6187 28.1862 50.4276 28.0269 50.2081 27.9171C49.9882 27.8071 49.7458 27.7499 49.5 27.7499H30.5Z" fill="#062617"/>
<path fill-rule="evenodd" clip-rule="evenodd" d="M28.2919 25.1255C29.0417 24.6756 30.0143 24.9188 30.4642 25.6686L39.7742 41.1853C40.2241 41.9351 39.981 42.9077 39.2311 43.3576C38.4813 43.8075 37.5087 43.5644 37.0588 42.8145L27.7488 27.2978C27.2989 26.548 27.5421 25.5754 28.2919 25.1255Z" fill="#062617"/>
<path fill-rule="evenodd" clip-rule="evenodd" d="M51.7077 25.1255C52.4575 25.5754 52.7007 26.548 52.2508 27.2978L42.9408 42.8145C42.4909 43.5644 41.5183 43.8075 40.7685 43.3576C40.0186 42.9077 39.7755 41.9351 40.2254 41.1853L49.5354 25.6686C49.9853 24.9188 50.9579 24.6756 51.7077 25.1255Z" fill="#062617"/>
<path fill-rule="evenodd" clip-rule="evenodd" d="M32.0835 34.0833C32.0835 33.2089 32.7924 32.5 33.6668 32.5H46.3335C47.2079 32.5 47.9168 33.2089 47.9168 34.0833C47.9168 34.9578 47.2079 35.6667 46.3335 35.6667H33.6668C32.7924 35.6667 32.0835 34.9578 32.0835 34.0833Z" fill="#062617"/>
<path fill-rule="evenodd" clip-rule="evenodd" d="M40 43.5834C36.5022 43.5834 33.6667 46.4189 33.6667 49.9167C33.6667 53.4146 36.5022 56.2501 40 56.2501C43.4978 56.2501 46.3333 53.4146 46.3333 49.9167C46.3333 46.4189 43.4978 43.5834 40 43.5834ZM30.5 49.9167C30.5 44.67 34.7533 40.4167 40 40.4167C45.2467 40.4167 49.5 44.67 49.5 49.9167C49.5 55.1635 45.2467 59.4167 40 59.4167C34.7533 59.4167 30.5 55.1635 30.5 49.9167Z" fill="#062617"/>
<path fill-rule="evenodd" clip-rule="evenodd" d="M37.625 48.3333C37.625 47.4589 38.3339 46.75 39.2083 46.75H40C40.8745 46.75 41.5833 47.4589 41.5833 48.3333V51.5C41.5833 52.3745 40.8745 53.0833 40 53.0833C39.1255 53.0833 38.4167 52.3745 38.4167 51.5V49.7048C37.9434 49.4311 37.625 48.9194 37.625 48.3333Z" fill="#062617"/>
</svg>
