<svg width="80" height="80" viewBox="0 0 80 80" fill="none" xmlns="http://www.w3.org/2000/svg">
<circle cx="40" cy="40" r="40" fill="#07F258"/>
<path fill-rule="evenodd" clip-rule="evenodd" d="M40.5 28.125C33.6655 28.125 28.125 33.6655 28.125 40.5C28.125 47.3345 33.6655 52.875 40.5 52.875C47.3345 52.875 52.875 47.3345 52.875 40.5C52.875 33.6655 47.3345 28.125 40.5 28.125ZM25.375 40.5C25.375 32.1467 32.1467 25.375 40.5 25.375C48.8533 25.375 55.625 32.1467 55.625 40.5C55.625 48.8533 48.8533 55.625 40.5 55.625C32.1467 55.625 25.375 48.8533 25.375 40.5Z" fill="#062617"/>
<path fill-rule="evenodd" clip-rule="evenodd" d="M40.5 30.875C41.2594 30.875 41.875 31.4906 41.875 32.25V39.125H46.6875C47.4469 39.125 48.0625 39.7406 48.0625 40.5C48.0625 41.2594 47.4469 41.875 46.6875 41.875H40.5C39.7406 41.875 39.125 41.2594 39.125 40.5V32.25C39.125 31.4906 39.7406 30.875 40.5 30.875Z" fill="#062617"/>
</svg>
