<svg width="80" height="80" viewBox="0 0 80 80" fill="none" xmlns="http://www.w3.org/2000/svg">
<circle cx="40" cy="40" r="40" fill="#07F258"/>
<path fill-rule="evenodd" clip-rule="evenodd" d="M27.9927 32.3677C29.6688 30.6916 31.9421 29.75 34.3125 29.75C35.6603 29.75 36.8881 29.9428 38.0894 30.4659C38.9321 30.833 39.7191 31.3441 40.5 32.0041C41.2809 31.3441 42.0679 30.833 42.9106 30.4659C44.1119 29.9428 45.3397 29.75 46.6875 29.75C49.0579 29.75 51.3312 30.6916 53.0073 32.3677C54.6834 34.0438 55.625 36.3171 55.625 38.6875C55.625 42.4574 53.1372 45.223 51.0925 47.2271L41.4723 56.8473C40.9353 57.3842 40.0647 57.3842 39.5277 56.8473L29.9109 47.2304C27.8423 45.2298 25.375 42.4679 25.375 38.6875C25.375 36.3171 26.3166 34.0438 27.9927 32.3677ZM34.3125 32.5C32.6715 32.5 31.0977 33.1519 29.9373 34.3123C28.7769 35.4727 28.125 37.0465 28.125 38.6875C28.125 41.2269 29.776 43.2752 31.8307 45.2614C31.8362 45.2668 31.8418 45.2722 31.8473 45.2777L40.5 53.9305L49.1527 45.2777C49.156 45.2744 49.1593 45.2712 49.1627 45.2679C51.2144 43.2574 52.875 41.2119 52.875 38.6875C52.875 37.0465 52.2231 35.4727 51.0627 34.3123C49.9023 33.1519 48.3285 32.5 46.6875 32.5C45.6153 32.5 44.7806 32.651 44.0087 32.9872C43.228 33.3272 42.4252 33.8944 41.4723 34.8473C40.9353 35.3842 40.0647 35.3842 39.5277 34.8473C38.5748 33.8944 37.772 33.3272 36.9913 32.9872C36.2194 32.651 35.3847 32.5 34.3125 32.5Z" fill="#062617"/>
<path fill-rule="evenodd" clip-rule="evenodd" d="M41.4722 32.9027C42.0092 33.4397 42.0092 34.3103 41.4722 34.8473L37.4022 38.9173C37.4011 38.9185 37.3999 38.9196 37.3987 38.9208C37.2481 39.0703 37.1285 39.2482 37.0469 39.4442C36.9653 39.6401 36.9233 39.8503 36.9233 40.0625C36.9233 40.2747 36.9653 40.4849 37.0469 40.6808C37.1285 40.8768 37.2481 41.0547 37.3987 41.2042C37.3999 41.2054 37.4011 41.2065 37.4022 41.2077C38.0046 41.8101 38.9719 41.8441 39.6319 41.2571L42.4714 38.6508C42.4734 38.649 42.4753 38.6472 42.4772 38.6455C43.4436 37.7686 44.7019 37.2828 46.0068 37.2828C47.3106 37.2828 48.5677 37.7677 49.5338 38.643C49.5347 38.6439 49.5355 38.6447 49.5364 38.6455L53.6015 42.2985C54.1664 42.8061 54.2128 43.6755 53.7052 44.2403C53.1976 44.8051 52.3282 44.8516 51.7634 44.344L47.6934 40.6865C47.6918 40.685 47.6901 40.6835 47.6885 40.682C47.228 40.2642 46.6286 40.0328 46.0068 40.0328C45.3863 40.0328 44.7879 40.2634 44.3278 40.6797L41.4847 43.2892C41.4808 43.2929 41.4768 43.2965 41.4728 43.3C39.741 44.8527 37.1105 44.8034 35.4593 43.1539C35.0521 42.7492 34.7289 42.2679 34.5082 41.7379C34.2871 41.207 34.1733 40.6376 34.1733 40.0625C34.1733 39.4874 34.2871 38.918 34.5082 38.3871C34.7289 37.8571 35.0521 37.3759 35.4593 36.9711L39.5277 32.9027C40.0647 32.3658 40.9353 32.3658 41.4722 32.9027Z" fill="#062617"/>
<path fill-rule="evenodd" clip-rule="evenodd" d="M45.0277 43.9027C45.5647 43.3658 46.4353 43.3658 46.9723 43.9027L49.7223 46.6527C50.2592 47.1897 50.2592 48.0603 49.7223 48.5973C49.1853 49.1342 48.3147 49.1342 47.7777 48.5973L45.0277 45.8473C44.4908 45.3103 44.4908 44.4397 45.0277 43.9027Z" fill="#062617"/>
<path fill-rule="evenodd" clip-rule="evenodd" d="M40.9027 48.0277C41.4397 47.4908 42.3103 47.4908 42.8473 48.0277L45.5973 50.7777C46.1342 51.3147 46.1342 52.1853 45.5973 52.7223C45.0603 53.2592 44.1897 53.2592 43.6527 52.7223L40.9027 49.9723C40.3658 49.4353 40.3658 48.5647 40.9027 48.0277Z" fill="#062617"/>
</svg>
