<svg width="80" height="80" viewBox="0 0 80 80" fill="none" xmlns="http://www.w3.org/2000/svg">
<circle cx="40" cy="40" r="40" fill="#07F258"/>
<path fill-rule="evenodd" clip-rule="evenodd" d="M55.1682 33.9149C55.7215 34.4682 55.7215 35.3652 55.1682 35.9184L43.1266 47.9601C42.5733 48.5133 41.6763 48.5133 41.1231 47.9601L35.0415 41.8785L26.8349 50.0851C26.2817 50.6383 25.3847 50.6383 24.8314 50.0851C24.2782 49.5318 24.2782 48.6348 24.8314 48.0816L34.0398 38.8733C34.593 38.32 35.49 38.32 36.0432 38.8733L42.1248 44.9549L53.1648 33.9149C53.718 33.3617 54.615 33.3617 55.1682 33.9149Z" fill="#062617"/>
<path fill-rule="evenodd" clip-rule="evenodd" d="M44.25 34.9167C44.25 34.1343 44.8843 33.5 45.6667 33.5H54.1667C54.9491 33.5 55.5833 34.1343 55.5833 34.9167V43.4167C55.5833 44.1991 54.9491 44.8333 54.1667 44.8333C53.3843 44.8333 52.75 44.1991 52.75 43.4167V36.3333H45.6667C44.8843 36.3333 44.25 35.6991 44.25 34.9167Z" fill="#062617"/>
</svg>
