<svg width="705" height="885" viewBox="0 0 705 885" fill="none" xmlns="http://www.w3.org/2000/svg">
<path d="M535.493 -121.46H721.252C765.541 -121.46 801.478 -85.6168 801.478 -41.3805C801.478 2.8281 765.569 38.6991 721.252 38.6991H535.493C483.433 38.6991 435.592 47.1198 391.941 63.9889C354.617 79.1682 318.625 102.491 284.021 133.958C282.8 135.066 281.634 136.229 280.524 137.448C251.775 169.303 229.103 205.229 212.536 245.2C200.049 274.257 192.362 312.205 189.448 358.99C189.365 360.375 189.31 361.787 189.31 363.172C189.31 396.938 161.892 424.305 128.065 424.305H64.7669C30.9394 424.305 3.52228 396.938 3.52228 363.172V361.095C6.32504 296.472 19.0069 236.779 41.5122 181.989C68.2634 117.366 104.838 63.9889 151.264 21.8577C199.105 -23.0987 255.41 -58.2219 320.124 -83.4839C386.252 -108.774 458.042 -121.405 535.437 -121.405L535.493 -121.46ZM655.789 352.619H761.323C783.468 352.619 801.422 370.541 801.422 392.645C801.422 460.066 788.768 521.864 763.432 578.066C739.512 635.654 702.937 689.031 653.68 738.198C605.839 783.154 549.534 818.277 484.821 843.539C418.692 868.829 346.903 881.46 269.507 881.46H83.7757C39.4865 881.46 3.55003 845.617 3.55003 801.38C3.55003 757.172 39.4587 721.301 83.7757 721.301H269.535C321.594 721.301 369.436 712.88 413.087 696.011C455.295 679.142 491.897 655.265 522.839 624.38C550.977 596.292 574.204 560.477 592.491 516.933C606.561 479.012 614.997 437.574 617.827 392.617H615.718C615.718 370.513 633.673 352.591 655.817 352.591L655.789 352.619Z" stroke="#017649" stroke-opacity="0.2" stroke-width="7" stroke-miterlimit="10"/>
</svg>
