<svg width="184" height="31" viewBox="0 0 184 31" fill="none" xmlns="http://www.w3.org/2000/svg">
<g clip-path="url(#clip0_6676_1169)">
<path d="M50.6913 0.231934C55.4528 0.231934 59.9011 1.80445 63.2197 4.66387C66.5454 7.53 68.3754 11.3672 68.3754 15.4698L68.3473 29.0378C68.3473 30.5868 66.4891 30.7682 65.0884 30.7682H65.0321C64.6837 30.7682 64.0292 30.7682 63.445 30.617C62.2027 30.2945 62.0162 29.5015 62.0162 29.0546V27.6266C62.0162 27.5392 61.9634 27.4552 61.8824 27.4149C61.8472 27.3981 61.8085 27.388 61.7698 27.388C61.7205 27.388 61.6678 27.4015 61.6255 27.4317C58.504 29.5721 54.7243 30.701 50.6913 30.701C45.9298 30.701 41.4814 29.1285 38.1628 26.2691C34.8371 23.4063 33.0071 19.5691 33.0071 15.4665C33.0071 11.3638 34.8371 7.52664 38.1628 4.66387C41.4814 1.80781 45.9298 0.231934 50.6913 0.231934ZM50.6913 24.243C56.7162 24.243 61.805 20.2243 61.805 15.4665C61.805 10.7086 56.7162 6.68999 50.6913 6.68999C44.6663 6.68999 39.5775 10.7086 39.5775 15.4665C39.5775 20.2243 44.6663 24.243 50.6913 24.243Z" fill="white"/>
<path d="M139.636 31C137.993 31 136.247 30.1969 136.247 28.7051V28.6513C136.24 4.72762 136.247 2.55365 136.247 2.27477V2.24789C136.335 0.924019 137.729 0 139.636 0C141.544 0 142.973 0.950899 143.025 2.26469V2.30165V28.7084C143.025 30.0155 141.568 31.0034 139.636 31.0034V31Z" fill="white"/>
<path d="M180.076 31.0001C178.175 31.0001 176.69 29.8072 176.69 28.2818V15.4665C176.69 10.8128 172.017 6.88148 166.485 6.88148C160.952 6.88148 156.275 10.8128 156.275 15.4665V28.2818C156.275 29.8072 154.79 31.0001 152.89 31.0001C150.989 31.0001 149.504 29.8005 149.504 28.2717C149.504 28.2246 149.466 23.0737 149.466 15.3724C149.466 11.2395 151.218 7.37541 154.403 4.48911C157.591 1.59609 161.885 0.00341797 166.485 0.00341797C171.084 0.00341797 175.378 1.59609 178.566 4.48911C181.751 7.37541 183.504 11.2428 183.504 15.3724C183.504 23.0434 183.465 28.2515 183.465 28.3019V28.3254C183.412 29.8509 181.959 31.0001 180.079 31.0001H180.076Z" fill="white"/>
<path d="M22.9949 0.268985C24.7264 0.268985 26.1306 1.61301 26.1306 3.26617C26.1306 4.91932 24.7229 6.26335 22.9949 6.26335H17.3536C15.8685 6.26335 14.4854 6.49519 13.2431 6.95552C12.2014 7.36209 11.1738 8.0005 10.1884 8.85732C10.1708 8.87412 10.1497 8.89428 10.1321 8.91108C9.31567 9.77462 8.66462 10.7625 8.19656 11.8444C7.84816 12.6206 7.62996 13.6622 7.5455 14.939C7.5455 14.9659 7.5455 14.9928 7.5455 15.0197C7.5455 16.3671 6.39823 17.4658 4.9835 17.4658H3.062C1.64727 17.4591 0.5 16.3604 0.5 15.013V14.9222C0.587981 12.9768 0.996212 11.1522 1.7071 9.49573C2.55523 7.53345 3.73769 5.88702 5.21929 4.60011C6.722 3.24937 8.52033 2.1775 10.558 1.41477C12.6413 0.652033 14.9288 0.265625 17.3536 0.265625H22.9949" fill="white"/>
<path d="M24.2126 14.0352C25.2719 14.0352 26.1306 14.8584 26.1306 15.8664C26.1306 17.906 25.7223 19.8078 24.9164 21.5214C24.1563 23.2619 22.9879 24.8983 21.4394 26.3733L21.4218 26.3901C19.9121 27.7476 18.1102 28.8228 16.0691 29.5856C13.9857 30.3483 11.6982 30.7347 9.27344 30.7347H3.63915C1.90769 30.7381 0.5 29.394 0.5 27.7409C0.5 26.0877 1.90769 24.7437 3.63915 24.7437H9.28048C10.7656 24.7437 12.1487 24.5119 13.3874 24.0549C14.5699 23.6046 15.6081 22.9561 16.4738 22.1262C17.2551 21.3803 17.9132 20.4092 18.434 19.2265C18.7507 18.4032 18.9724 17.5027 19.0851 16.5485C19.0851 16.5384 19.0851 16.5317 19.0851 16.5216V15.8698C19.0851 14.8584 19.9473 14.0385 21.003 14.0385H24.2091" fill="white"/>
<path d="M126.953 10.4867C127.893 5.99762 127.196 2.32842 123.381 1.37416C119.978 0.520705 117.497 0.917192 116.402 3.0038C115.276 5.15424 116.596 7.88262 117.873 10.5236C118.067 10.9268 118.289 11.3468 118.521 11.7937C119.978 14.586 121.97 18.4064 118.415 20.4426C117.226 21.1246 116.082 21.3363 115.012 21.0742C112.911 20.5602 111.595 18.403 110.536 16.6726C110.413 16.4676 110.293 16.2727 110.177 16.0879C108.618 13.6048 105.968 8.82008 104.215 5.65153C103.649 4.62671 103.177 3.77661 102.874 3.239C102.512 2.60059 100.517 -0.490676 96.568 1.30024C93.105 2.87275 95.0793 7.30468 95.0969 7.34836C95.8782 8.94104 98.5528 13.5578 98.8097 13.9811C99.3235 14.7674 100.488 16.8103 100.056 18.6214C99.8021 19.6798 99.1405 20.5534 98.134 21.1448C96.7545 21.9579 95.3644 22.1965 94.006 21.8538C92.2288 21.4035 90.2967 19.2094 89.1705 17.237C88.0655 15.3016 81.4845 4.74431 80.3795 3.01052C80.2845 2.86939 77.9055 -0.598198 74.1223 1.3876C73.1968 1.87481 72.6302 2.49307 72.3944 3.27932C71.8207 5.16768 73.0771 7.56005 73.4748 8.24886C74.5305 10.0734 83.1034 24.4982 85.1023 27.0451C86.2672 28.5302 90.36 31.7492 95.2377 28.8528C99.2461 26.4705 101.231 22.6636 101.252 22.6232C101.576 21.9143 102.322 21.4472 103.149 21.4472H103.219C104.078 21.4775 104.817 21.9915 105.106 22.7576C105.658 24.226 107.921 28.6579 110.948 29.7231C113.46 30.6068 117.961 29.6659 120.851 25.8724C124.757 20.745 125.978 15.1504 126.953 10.49V10.4867Z" fill="white"/>
</g>
<defs>
<clipPath id="clip0_6676_1169">
<rect width="183" height="31" fill="white" transform="translate(0.5)"/>
</clipPath>
</defs>
</svg>
