<svg width="149" height="23" viewBox="0 0 149 23" fill="none" xmlns="http://www.w3.org/2000/svg">
<g clip-path="url(#clip0_6676_1124)">
<path d="M40.8661 0.171997C44.743 0.171997 48.3648 1.3387 51.0669 3.4602C53.7746 5.58669 55.2646 8.43365 55.2646 11.4775L55.2417 21.5441C55.2417 22.6933 53.7288 22.828 52.5884 22.828H52.5425C52.2589 22.828 51.7259 22.828 51.2502 22.7158C50.2388 22.4765 50.0869 21.8881 50.0869 21.5566V20.4971C50.0869 20.4322 50.0439 20.3699 49.978 20.34C49.9494 20.3275 49.9178 20.3201 49.8863 20.3201C49.8462 20.3201 49.8032 20.33 49.7688 20.3525C47.2272 21.9405 44.1498 22.7781 40.8661 22.7781C36.9892 22.7781 33.3674 21.6114 30.6653 19.4899C27.9575 17.3659 26.4675 14.5189 26.4675 11.4751C26.4675 8.43116 27.9575 5.5842 30.6653 3.4602C33.3674 1.34119 36.9892 0.171997 40.8661 0.171997ZM40.8661 17.9866C45.7716 17.9866 49.915 15.0051 49.915 11.4751C49.915 7.94503 45.7716 4.96346 40.8661 4.96346C35.9605 4.96346 31.8172 7.94503 31.8172 11.4751C31.8172 15.0051 35.9605 17.9866 40.8661 17.9866Z" fill="#017649"/>
<path d="M113.286 23C111.948 23 110.526 22.4042 110.526 21.2973V21.2574C110.521 3.50759 110.526 1.89465 110.526 1.68773V1.66779C110.598 0.685562 111.733 0 113.286 0C114.839 0 116.002 0.705506 116.045 1.68025V1.70767V21.2998C116.045 22.2696 114.859 23.0025 113.286 23.0025V23Z" fill="#017649"/>
<path d="M146.212 23C144.665 23 143.455 22.115 143.455 20.9832V11.4751C143.455 8.02234 139.65 5.10558 135.146 5.10558C130.641 5.10558 126.833 8.02234 126.833 11.4751V20.9832C126.833 22.115 125.624 23 124.077 23C122.53 23 121.32 22.11 121.32 20.9757C121.32 20.9408 121.289 17.1191 121.289 11.4053C121.289 8.33894 122.716 5.47204 125.309 3.3306C127.905 1.18416 131.401 0.00250244 135.146 0.00250244C138.891 0.00250244 142.387 1.18416 144.983 3.3306C147.576 5.47204 149.003 8.34143 149.003 11.4053C149.003 17.0967 148.971 20.9608 148.971 20.9982V21.0156C148.928 22.1474 147.745 23 146.215 23H146.212Z" fill="#017649"/>
<path d="M18.3155 0.199453C19.7253 0.199453 20.8686 1.19664 20.8686 2.42317C20.8686 3.6497 19.7224 4.64688 18.3155 4.64688H13.7223C12.5131 4.64688 11.387 4.8189 10.3756 5.16043C9.5274 5.46208 8.69071 5.93574 7.8884 6.57145C7.87408 6.58391 7.85688 6.59887 7.84256 6.61133C7.17779 7.25202 6.64769 7.98495 6.2666 8.78768C5.98292 9.36355 5.80527 10.1364 5.7365 11.0837C5.7365 11.1036 5.7365 11.1236 5.7365 11.1435C5.7365 12.1432 4.80238 12.9584 3.6505 12.9584H2.086C0.934115 12.9534 0 12.1382 0 11.1385V11.0712C0.0716346 9.62781 0.404019 8.27413 0.982827 7.04511C1.67338 5.58922 2.63615 4.36767 3.84248 3.41287C5.066 2.4107 6.53021 1.61545 8.18927 1.04955C9.88558 0.48365 11.7481 0.19696 13.7223 0.19696H18.3155" fill="#017649"/>
<path d="M19.307 10.4131C20.1694 10.4131 20.8686 11.0239 20.8686 11.7717C20.8686 13.285 20.5362 14.696 19.88 15.9674C19.2611 17.2587 18.3098 18.4728 17.049 19.5672L17.0347 19.5797C15.8055 20.5868 14.3384 21.3846 12.6765 21.9505C10.9802 22.5164 9.11765 22.8031 7.1434 22.8031H2.55592C1.14615 22.8056 0 21.8084 0 20.5818C0 19.3553 1.14615 18.3581 2.55592 18.3581H7.14913C8.35833 18.3581 9.48442 18.1861 10.493 17.8471C11.4558 17.513 12.3011 17.0319 13.006 16.4161C13.6421 15.8627 14.1779 15.1422 14.602 14.2647C14.8599 13.6539 15.0404 12.9858 15.1321 12.2778C15.1321 12.2703 15.1321 12.2654 15.1321 12.2579V11.7742C15.1321 11.0239 15.8341 10.4156 16.6937 10.4156H19.3041" fill="#017649"/>
<path d="M102.959 7.78049C103.724 4.4499 103.157 1.7276 100.051 1.0196C97.2798 0.386388 95.2597 0.680557 94.3685 2.22868C93.4516 3.82417 94.5261 5.84845 95.5663 7.80791C95.7239 8.10707 95.9044 8.41869 96.0935 8.75025C97.2798 10.8219 98.9016 13.6564 96.0075 15.1671C95.039 15.6732 94.1078 15.8302 93.2367 15.6358C91.5261 15.2544 90.4544 13.6539 89.5919 12.37C89.4917 12.218 89.3942 12.0734 89.2997 11.9362C88.0303 10.094 85.8727 6.54399 84.4457 4.19313C83.9844 3.43278 83.6004 2.80206 83.354 2.40319C83.0589 1.92953 81.4342 -0.363991 78.2192 0.964754C75.3997 2.13146 77.0072 5.41966 77.0215 5.45207C77.6576 6.63373 79.8353 10.0591 80.0445 10.3732C80.4628 10.9565 81.4113 12.4722 81.0588 13.8159C80.8525 14.6012 80.3138 15.2494 79.4943 15.6881C78.3711 16.2914 77.2393 16.4684 76.1332 16.2142C74.6862 15.8801 73.1131 14.2522 72.1962 12.7888C71.2965 11.3529 65.9382 3.52003 65.0385 2.23367C64.9611 2.12896 63.0241 -0.443766 59.9438 1.02957C59.1902 1.39105 58.7289 1.84975 58.5369 2.4331C58.0698 3.83414 59.0928 5.60913 59.4166 6.12018C60.2762 7.47386 67.2563 18.1761 68.8838 20.0658C69.8322 21.1677 73.1647 23.5559 77.1361 21.407C80.3998 19.6395 82.0159 16.815 82.0331 16.785C82.2967 16.259 82.9041 15.9125 83.5775 15.9125H83.6348C84.334 15.9349 84.9357 16.3164 85.1707 16.8848C85.6205 17.9742 87.463 21.2624 89.9272 22.0527C91.9731 22.7083 95.6379 22.0103 97.9904 19.1957C101.171 15.3915 102.165 11.2407 102.959 7.78298V7.78049Z" fill="#017649"/>
</g>
<defs>
<clipPath id="clip0_6676_1124">
<rect width="149" height="23" fill="white"/>
</clipPath>
</defs>
</svg>
